<?xml version="1.0" encoding="UTF-8" standalone="no"?>
<!DOCTYPE svg PUBLIC "-//W3C//DTD SVG 1.1//EN"
 "http://www.w3.org/Graphics/SVG/1.1/DTD/svg11.dtd">
<!-- Generated by graphviz version 2.42.3 (0)
 -->
<!-- Title: sillyfunction Pages: 1 -->
<svg width="811pt" height="179pt"
 viewBox="0.00 0.00 811.00 178.50" xmlns="http://www.w3.org/2000/svg" xmlns:xlink="http://www.w3.org/1999/xlink">
<g id="graph0" class="graph" transform="scale(1 1) rotate(0) translate(4 174.5)">
<title>sillyfunction</title>
<polygon fill="white" stroke="transparent" points="-4,4 -4,-174.5 807,-174.5 807,4 -4,4"/>
<text text-anchor="middle" x="401.5" y="-7.8" font-family="Times,serif" font-size="14.00">sillyfunction</text>
<!-- n17 -->
<g id="node1" class="node">
<title>n17</title>
<polygon fill="none" stroke="black" points="144,-91.04 144,-105.96 128.18,-116.5 105.82,-116.5 90,-105.96 90,-91.04 105.82,-80.5 128.18,-80.5 144,-91.04"/>
<text text-anchor="middle" x="117" y="-94.8" font-family="Times,serif" font-size="14.00">a</text>
</g>
<!-- x0 -->
<g id="node9" class="node">
<title>x0</title>
<path fill="none" stroke="black" d="M256.5,-116.5C256.5,-116.5 226.5,-116.5 226.5,-116.5 220.5,-116.5 214.5,-110.5 214.5,-104.5 214.5,-104.5 214.5,-92.5 214.5,-92.5 214.5,-86.5 220.5,-80.5 226.5,-80.5 226.5,-80.5 256.5,-80.5 256.5,-80.5 262.5,-80.5 268.5,-86.5 268.5,-92.5 268.5,-92.5 268.5,-104.5 268.5,-104.5 268.5,-110.5 262.5,-116.5 256.5,-116.5"/>
<text text-anchor="middle" x="241.5" y="-94.8" font-family="Times,serif" font-size="14.00">BUF</text>
</g>
<!-- n17&#45;&gt;x0 -->
<g id="edge2" class="edge">
<title>n17:e&#45;&gt;x0:w</title>
<path fill="none" stroke="black" d="M144,-98.5C171.15,-98.5 180.4,-98.5 203.22,-98.5"/>
<polygon fill="black" stroke="black" points="203.5,-102 213.5,-98.5 203.5,-95 203.5,-102"/>
</g>
<!-- n18 -->
<g id="node2" class="node">
<title>n18</title>
<polygon fill="none" stroke="black" points="144,-145.04 144,-159.96 128.18,-170.5 105.82,-170.5 90,-159.96 90,-145.04 105.82,-134.5 128.18,-134.5 144,-145.04"/>
<text text-anchor="middle" x="117" y="-148.8" font-family="Times,serif" font-size="14.00">b</text>
</g>
<!-- x2 -->
<g id="node11" class="node">
<title>x2</title>
<path fill="none" stroke="black" d="M256.5,-170.5C256.5,-170.5 226.5,-170.5 226.5,-170.5 220.5,-170.5 214.5,-164.5 214.5,-158.5 214.5,-158.5 214.5,-146.5 214.5,-146.5 214.5,-140.5 220.5,-134.5 226.5,-134.5 226.5,-134.5 256.5,-134.5 256.5,-134.5 262.5,-134.5 268.5,-140.5 268.5,-146.5 268.5,-146.5 268.5,-158.5 268.5,-158.5 268.5,-164.5 262.5,-170.5 256.5,-170.5"/>
<text text-anchor="middle" x="241.5" y="-148.8" font-family="Times,serif" font-size="14.00">BUF</text>
</g>
<!-- n18&#45;&gt;x2 -->
<g id="edge3" class="edge">
<title>n18:e&#45;&gt;x2:w</title>
<path fill="none" stroke="black" d="M144,-152.5C171.15,-152.5 180.4,-152.5 203.22,-152.5"/>
<polygon fill="black" stroke="black" points="203.5,-156 213.5,-152.5 203.5,-149 203.5,-156"/>
</g>
<!-- n19 -->
<g id="node3" class="node">
<title>n19</title>
<polygon fill="none" stroke="black" points="54,-35.04 54,-49.96 38.18,-60.5 15.82,-60.5 0,-49.96 0,-35.04 15.82,-24.5 38.18,-24.5 54,-35.04"/>
<text text-anchor="middle" x="27" y="-38.8" font-family="Times,serif" font-size="14.00">c</text>
</g>
<!-- x1 -->
<g id="node10" class="node">
<title>x1</title>
<path fill="none" stroke="black" d="M132,-60.5C132,-60.5 102,-60.5 102,-60.5 96,-60.5 90,-54.5 90,-48.5 90,-48.5 90,-36.5 90,-36.5 90,-30.5 96,-24.5 102,-24.5 102,-24.5 132,-24.5 132,-24.5 138,-24.5 144,-30.5 144,-36.5 144,-36.5 144,-48.5 144,-48.5 144,-54.5 138,-60.5 132,-60.5"/>
<text text-anchor="middle" x="117" y="-38.8" font-family="Times,serif" font-size="14.00">BUF</text>
</g>
<!-- n19&#45;&gt;x1 -->
<g id="edge4" class="edge">
<title>n19:e&#45;&gt;x1:w</title>
<path fill="none" stroke="black" d="M54,-42.5C66,-42.5 71.25,-42.5 79.88,-42.5"/>
<polygon fill="black" stroke="black" points="80,-46 90,-42.5 80,-39 80,-46"/>
</g>
<!-- n20 -->
<g id="node4" class="node">
<title>n20</title>
<polygon fill="none" stroke="black" points="803,-110.04 803,-124.96 787.18,-135.5 764.82,-135.5 749,-124.96 749,-110.04 764.82,-99.5 787.18,-99.5 803,-110.04"/>
<text text-anchor="middle" x="776" y="-113.8" font-family="Times,serif" font-size="14.00">y</text>
</g>
<!-- c23 -->
<g id="node5" class="node">
<title>c23</title>
<polygon fill="none" stroke="black" points="180,-23.5 180,-61.5 303,-61.5 303,-23.5 180,-23.5"/>
<text text-anchor="middle" x="193" y="-38.8" font-family="Times,serif" font-size="14.00">A</text>
<polyline fill="none" stroke="black" points="206,-23.5 206,-61.5 "/>
<text text-anchor="middle" x="241.5" y="-46.3" font-family="Times,serif" font-size="14.00">$70</text>
<text text-anchor="middle" x="241.5" y="-31.3" font-family="Times,serif" font-size="14.00">$_NOT_</text>
<polyline fill="none" stroke="black" points="277,-23.5 277,-61.5 "/>
<text text-anchor="middle" x="290" y="-38.8" font-family="Times,serif" font-size="14.00">Y</text>
</g>
<!-- c26 -->
<g id="node7" class="node">
<title>c26</title>
<polygon fill="none" stroke="black" points="343.5,-63.5 343.5,-109.5 457.5,-109.5 457.5,-63.5 343.5,-63.5"/>
<text text-anchor="middle" x="357" y="-94.3" font-family="Times,serif" font-size="14.00">A</text>
<polyline fill="none" stroke="black" points="343.5,-86.5 370.5,-86.5 "/>
<text text-anchor="middle" x="357" y="-71.3" font-family="Times,serif" font-size="14.00">B</text>
<polyline fill="none" stroke="black" points="370.5,-63.5 370.5,-109.5 "/>
<text text-anchor="middle" x="401" y="-90.3" font-family="Times,serif" font-size="14.00">$72</text>
<text text-anchor="middle" x="401" y="-75.3" font-family="Times,serif" font-size="14.00">$_OR_</text>
<polyline fill="none" stroke="black" points="431.5,-63.5 431.5,-109.5 "/>
<text text-anchor="middle" x="444.5" y="-82.8" font-family="Times,serif" font-size="14.00">Y</text>
</g>
<!-- c23&#45;&gt;c26 -->
<g id="edge9" class="edge">
<title>c23:e&#45;&gt;c26:w</title>
<path fill="none" stroke="black" d="M303,-42.5C321.53,-42.5 321.04,-64.03 332.73,-71.77"/>
<polygon fill="black" stroke="black" points="331.93,-75.18 342.5,-74.5 333.81,-68.44 331.93,-75.18"/>
</g>
<!-- c24 -->
<g id="node6" class="node">
<title>c24</title>
<polygon fill="none" stroke="black" points="339,-130.5 339,-168.5 462,-168.5 462,-130.5 339,-130.5"/>
<text text-anchor="middle" x="352" y="-145.8" font-family="Times,serif" font-size="14.00">A</text>
<polyline fill="none" stroke="black" points="365,-130.5 365,-168.5 "/>
<text text-anchor="middle" x="400.5" y="-153.3" font-family="Times,serif" font-size="14.00">$71</text>
<text text-anchor="middle" x="400.5" y="-138.3" font-family="Times,serif" font-size="14.00">$_NOT_</text>
<polyline fill="none" stroke="black" points="436,-130.5 436,-168.5 "/>
<text text-anchor="middle" x="449" y="-145.8" font-family="Times,serif" font-size="14.00">Y</text>
</g>
<!-- c27 -->
<g id="node8" class="node">
<title>c27</title>
<polygon fill="none" stroke="black" points="498,-94.5 498,-140.5 623,-140.5 623,-94.5 498,-94.5"/>
<text text-anchor="middle" x="511.5" y="-125.3" font-family="Times,serif" font-size="14.00">A</text>
<polyline fill="none" stroke="black" points="498,-117.5 525,-117.5 "/>
<text text-anchor="middle" x="511.5" y="-102.3" font-family="Times,serif" font-size="14.00">B</text>
<polyline fill="none" stroke="black" points="525,-94.5 525,-140.5 "/>
<text text-anchor="middle" x="561" y="-121.3" font-family="Times,serif" font-size="14.00">$73</text>
<text text-anchor="middle" x="561" y="-106.3" font-family="Times,serif" font-size="14.00">$_AND_</text>
<polyline fill="none" stroke="black" points="597,-94.5 597,-140.5 "/>
<text text-anchor="middle" x="610" y="-113.8" font-family="Times,serif" font-size="14.00">Y</text>
</g>
<!-- c24&#45;&gt;c27 -->
<g id="edge10" class="edge">
<title>c24:e&#45;&gt;c27:w</title>
<path fill="none" stroke="black" d="M462,-149.5C476.16,-149.5 479,-137.54 488.03,-132.11"/>
<polygon fill="black" stroke="black" points="489.22,-135.42 498,-129.5 487.44,-128.65 489.22,-135.42"/>
</g>
<!-- c26&#45;&gt;c27 -->
<g id="edge11" class="edge">
<title>c26:e&#45;&gt;c27:w</title>
<path fill="none" stroke="black" d="M458.5,-86.5C474.02,-86.5 477.52,-98.57 488.16,-103.47"/>
<polygon fill="black" stroke="black" points="487.5,-106.9 498,-105.5 488.91,-100.05 487.5,-106.9"/>
</g>
<!-- x3 -->
<g id="node12" class="node">
<title>x3</title>
<path fill="none" stroke="black" d="M701,-135.5C701,-135.5 671,-135.5 671,-135.5 665,-135.5 659,-129.5 659,-123.5 659,-123.5 659,-111.5 659,-111.5 659,-105.5 665,-99.5 671,-99.5 671,-99.5 701,-99.5 701,-99.5 707,-99.5 713,-105.5 713,-111.5 713,-111.5 713,-123.5 713,-123.5 713,-129.5 707,-135.5 701,-135.5"/>
<text text-anchor="middle" x="686" y="-113.8" font-family="Times,serif" font-size="14.00">BUF</text>
</g>
<!-- c27&#45;&gt;x3 -->
<g id="edge8" class="edge">
<title>c27:e&#45;&gt;x3:w</title>
<path fill="none" stroke="black" d="M623,-117.5C635,-117.5 640.25,-117.5 648.88,-117.5"/>
<polygon fill="black" stroke="black" points="649,-121 659,-117.5 649,-114 649,-121"/>
</g>
<!-- x0&#45;&gt;c26 -->
<g id="edge1" class="edge">
<title>x0:e&#45;&gt;c26:w</title>
<path fill="none" stroke="black" d="M269.5,-98.5C298.27,-98.5 307.91,-98.5 332.34,-98.5"/>
<polygon fill="black" stroke="black" points="332.5,-102 342.5,-98.5 332.5,-95 332.5,-102"/>
</g>
<!-- x1&#45;&gt;c23 -->
<g id="edge5" class="edge">
<title>x1:e&#45;&gt;c23:w</title>
<path fill="none" stroke="black" d="M144,-42.5C156,-42.5 161.25,-42.5 169.88,-42.5"/>
<polygon fill="black" stroke="black" points="170,-46 180,-42.5 170,-39 170,-46"/>
</g>
<!-- x2&#45;&gt;c24 -->
<g id="edge7" class="edge">
<title>x2:e&#45;&gt;c24:w</title>
<path fill="none" stroke="black" d="M269.5,-152.5C296.67,-152.5 305.89,-150.18 328.71,-149.62"/>
<polygon fill="black" stroke="black" points="329.04,-153.12 339,-149.5 328.96,-146.12 329.04,-153.12"/>
</g>
<!-- x3&#45;&gt;n20 -->
<g id="edge6" class="edge">
<title>x3:e&#45;&gt;n20:w</title>
<path fill="none" stroke="black" d="M713,-117.5C725,-117.5 730.25,-117.5 738.88,-117.5"/>
<polygon fill="black" stroke="black" points="739,-121 749,-117.5 739,-114 739,-121"/>
</g>
</g>
</svg>
