<?xml version="1.0" encoding="UTF-8" standalone="no"?>
<!DOCTYPE svg PUBLIC "-//W3C//DTD SVG 1.1//EN"
 "http://www.w3.org/Graphics/SVG/1.1/DTD/svg11.dtd">
<!-- Generated by graphviz version 2.42.3 (0)
 -->
<!-- Title: sillyfunction Pages: 1 -->
<svg width="631pt" height="179pt"
 viewBox="0.00 0.00 631.00 178.50" xmlns="http://www.w3.org/2000/svg" xmlns:xlink="http://www.w3.org/1999/xlink">
<g id="graph0" class="graph" transform="scale(1 1) rotate(0) translate(4 174.5)">
<title>sillyfunction</title>
<polygon fill="white" stroke="transparent" points="-4,4 -4,-174.5 627,-174.5 627,4 -4,4"/>
<text text-anchor="middle" x="311.5" y="-7.8" font-family="Times,serif" font-size="14.00">sillyfunction</text>
<!-- n4 -->
<g id="node1" class="node">
<title>n4</title>
<polygon fill="none" stroke="black" points="178.5,-91.04 178.5,-105.96 162.68,-116.5 140.32,-116.5 124.5,-105.96 124.5,-91.04 140.32,-80.5 162.68,-80.5 178.5,-91.04"/>
<text text-anchor="middle" x="151.5" y="-94.8" font-family="Times,serif" font-size="14.00">a</text>
</g>
<!-- c13 -->
<g id="node7" class="node">
<title>c13</title>
<polygon fill="none" stroke="black" points="253.5,-63.5 253.5,-109.5 367.5,-109.5 367.5,-63.5 253.5,-63.5"/>
<text text-anchor="middle" x="267" y="-94.3" font-family="Times,serif" font-size="14.00">A</text>
<polyline fill="none" stroke="black" points="253.5,-86.5 280.5,-86.5 "/>
<text text-anchor="middle" x="267" y="-71.3" font-family="Times,serif" font-size="14.00">B</text>
<polyline fill="none" stroke="black" points="280.5,-63.5 280.5,-109.5 "/>
<text text-anchor="middle" x="311" y="-90.3" font-family="Times,serif" font-size="14.00">$72</text>
<text text-anchor="middle" x="311" y="-75.3" font-family="Times,serif" font-size="14.00">$_OR_</text>
<polyline fill="none" stroke="black" points="341.5,-63.5 341.5,-109.5 "/>
<text text-anchor="middle" x="354.5" y="-82.8" font-family="Times,serif" font-size="14.00">Y</text>
</g>
<!-- n4&#45;&gt;c13 -->
<g id="edge4" class="edge">
<title>n4:e&#45;&gt;c13:w</title>
<path fill="none" stroke="black" d="M179.5,-98.5C208.27,-98.5 217.91,-98.5 242.34,-98.5"/>
<polygon fill="black" stroke="black" points="242.5,-102 252.5,-98.5 242.5,-95 242.5,-102"/>
</g>
<!-- n5 -->
<g id="node2" class="node">
<title>n5</title>
<polygon fill="none" stroke="black" points="178.5,-145.04 178.5,-159.96 162.68,-170.5 140.32,-170.5 124.5,-159.96 124.5,-145.04 140.32,-134.5 162.68,-134.5 178.5,-145.04"/>
<text text-anchor="middle" x="151.5" y="-148.8" font-family="Times,serif" font-size="14.00">b</text>
</g>
<!-- c11 -->
<g id="node6" class="node">
<title>c11</title>
<polygon fill="none" stroke="black" points="249,-130.5 249,-168.5 372,-168.5 372,-130.5 249,-130.5"/>
<text text-anchor="middle" x="262" y="-145.8" font-family="Times,serif" font-size="14.00">A</text>
<polyline fill="none" stroke="black" points="275,-130.5 275,-168.5 "/>
<text text-anchor="middle" x="310.5" y="-153.3" font-family="Times,serif" font-size="14.00">$71</text>
<text text-anchor="middle" x="310.5" y="-138.3" font-family="Times,serif" font-size="14.00">$_NOT_</text>
<polyline fill="none" stroke="black" points="346,-130.5 346,-168.5 "/>
<text text-anchor="middle" x="359" y="-145.8" font-family="Times,serif" font-size="14.00">Y</text>
</g>
<!-- n5&#45;&gt;c11 -->
<g id="edge5" class="edge">
<title>n5:e&#45;&gt;c11:w</title>
<path fill="none" stroke="black" d="M179.5,-152.5C206.67,-152.5 215.89,-150.18 238.71,-149.62"/>
<polygon fill="black" stroke="black" points="239.04,-153.12 249,-149.5 238.96,-146.12 239.04,-153.12"/>
</g>
<!-- n6 -->
<g id="node3" class="node">
<title>n6</title>
<polygon fill="none" stroke="black" points="54,-35.04 54,-49.96 38.18,-60.5 15.82,-60.5 0,-49.96 0,-35.04 15.82,-24.5 38.18,-24.5 54,-35.04"/>
<text text-anchor="middle" x="27" y="-38.8" font-family="Times,serif" font-size="14.00">c</text>
</g>
<!-- c10 -->
<g id="node5" class="node">
<title>c10</title>
<polygon fill="none" stroke="black" points="90,-23.5 90,-61.5 213,-61.5 213,-23.5 90,-23.5"/>
<text text-anchor="middle" x="103" y="-38.8" font-family="Times,serif" font-size="14.00">A</text>
<polyline fill="none" stroke="black" points="116,-23.5 116,-61.5 "/>
<text text-anchor="middle" x="151.5" y="-46.3" font-family="Times,serif" font-size="14.00">$70</text>
<text text-anchor="middle" x="151.5" y="-31.3" font-family="Times,serif" font-size="14.00">$_NOT_</text>
<polyline fill="none" stroke="black" points="187,-23.5 187,-61.5 "/>
<text text-anchor="middle" x="200" y="-38.8" font-family="Times,serif" font-size="14.00">Y</text>
</g>
<!-- n6&#45;&gt;c10 -->
<g id="edge6" class="edge">
<title>n6:e&#45;&gt;c10:w</title>
<path fill="none" stroke="black" d="M54,-42.5C66,-42.5 71.25,-42.5 79.88,-42.5"/>
<polygon fill="black" stroke="black" points="80,-46 90,-42.5 80,-39 80,-46"/>
</g>
<!-- n7 -->
<g id="node4" class="node">
<title>n7</title>
<polygon fill="none" stroke="black" points="623,-110.04 623,-124.96 607.18,-135.5 584.82,-135.5 569,-124.96 569,-110.04 584.82,-99.5 607.18,-99.5 623,-110.04"/>
<text text-anchor="middle" x="596" y="-113.8" font-family="Times,serif" font-size="14.00">y</text>
</g>
<!-- c10&#45;&gt;c13 -->
<g id="edge1" class="edge">
<title>c10:e&#45;&gt;c13:w</title>
<path fill="none" stroke="black" d="M213,-42.5C231.53,-42.5 231.04,-64.03 242.73,-71.77"/>
<polygon fill="black" stroke="black" points="241.93,-75.18 252.5,-74.5 243.81,-68.44 241.93,-75.18"/>
</g>
<!-- c14 -->
<g id="node8" class="node">
<title>c14</title>
<polygon fill="none" stroke="black" points="408,-94.5 408,-140.5 533,-140.5 533,-94.5 408,-94.5"/>
<text text-anchor="middle" x="421.5" y="-125.3" font-family="Times,serif" font-size="14.00">A</text>
<polyline fill="none" stroke="black" points="408,-117.5 435,-117.5 "/>
<text text-anchor="middle" x="421.5" y="-102.3" font-family="Times,serif" font-size="14.00">B</text>
<polyline fill="none" stroke="black" points="435,-94.5 435,-140.5 "/>
<text text-anchor="middle" x="471" y="-121.3" font-family="Times,serif" font-size="14.00">$73</text>
<text text-anchor="middle" x="471" y="-106.3" font-family="Times,serif" font-size="14.00">$_AND_</text>
<polyline fill="none" stroke="black" points="507,-94.5 507,-140.5 "/>
<text text-anchor="middle" x="520" y="-113.8" font-family="Times,serif" font-size="14.00">Y</text>
</g>
<!-- c11&#45;&gt;c14 -->
<g id="edge2" class="edge">
<title>c11:e&#45;&gt;c14:w</title>
<path fill="none" stroke="black" d="M372,-149.5C386.16,-149.5 389,-137.54 398.03,-132.11"/>
<polygon fill="black" stroke="black" points="399.22,-135.42 408,-129.5 397.44,-128.65 399.22,-135.42"/>
</g>
<!-- c13&#45;&gt;c14 -->
<g id="edge3" class="edge">
<title>c13:e&#45;&gt;c14:w</title>
<path fill="none" stroke="black" d="M368.5,-86.5C384.02,-86.5 387.52,-98.57 398.16,-103.47"/>
<polygon fill="black" stroke="black" points="397.5,-106.9 408,-105.5 398.91,-100.05 397.5,-106.9"/>
</g>
<!-- c14&#45;&gt;n7 -->
<g id="edge7" class="edge">
<title>c14:e&#45;&gt;n7:w</title>
<path fill="none" stroke="black" d="M533,-117.5C545,-117.5 550.25,-117.5 558.88,-117.5"/>
<polygon fill="black" stroke="black" points="559,-121 569,-117.5 559,-114 559,-121"/>
</g>
</g>
</svg>
