<?xml version="1.0" encoding="UTF-8" standalone="no"?>
<!DOCTYPE svg PUBLIC "-//W3C//DTD SVG 1.1//EN"
 "http://www.w3.org/Graphics/SVG/1.1/DTD/svg11.dtd">
<!-- Generated by graphviz version 2.42.3 (0)
 -->
<!-- Title: sillyfunction Pages: 1 -->
<svg width="1068pt" height="261pt"
 viewBox="0.00 0.00 1068.00 261.00" xmlns="http://www.w3.org/2000/svg" xmlns:xlink="http://www.w3.org/1999/xlink">
<g id="graph0" class="graph" transform="scale(1 1) rotate(0) translate(4 257)">
<title>sillyfunction</title>
<polygon fill="white" stroke="transparent" points="-4,4 -4,-257 1064,-257 1064,4 -4,4"/>
<text text-anchor="middle" x="530" y="-7.8" font-family="Times,serif" font-size="14.00">sillyfunction</text>
<!-- n10 -->
<g id="node1" class="node">
<title>n10</title>
<polygon fill="none" stroke="black" points="281,-207.04 281,-221.96 265.18,-232.5 242.82,-232.5 227,-221.96 227,-207.04 242.82,-196.5 265.18,-196.5 281,-207.04"/>
<text text-anchor="middle" x="254" y="-210.8" font-family="Times,serif" font-size="14.00">a</text>
</g>
<!-- c19 -->
<g id="node7" class="node">
<title>c19</title>
<polygon fill="none" stroke="black" points="317,-110.5 317,-156.5 422,-156.5 422,-110.5 317,-110.5"/>
<text text-anchor="middle" x="330.5" y="-141.3" font-family="Times,serif" font-size="14.00">A</text>
<polyline fill="none" stroke="black" points="317,-133.5 344,-133.5 "/>
<text text-anchor="middle" x="330.5" y="-118.3" font-family="Times,serif" font-size="14.00">B</text>
<polyline fill="none" stroke="black" points="344,-110.5 344,-156.5 "/>
<text text-anchor="middle" x="370" y="-137.3" font-family="Times,serif" font-size="14.00">$7</text>
<text text-anchor="middle" x="370" y="-122.3" font-family="Times,serif" font-size="14.00">$and</text>
<polyline fill="none" stroke="black" points="396,-110.5 396,-156.5 "/>
<text text-anchor="middle" x="409" y="-129.8" font-family="Times,serif" font-size="14.00">Y</text>
</g>
<!-- n10&#45;&gt;c19 -->
<g id="edge2" class="edge">
<title>n10:e&#45;&gt;c19:w</title>
<path fill="none" stroke="black" d="M281,-214.5C311.27,-214.5 289.65,-161.67 306.94,-148.46"/>
<polygon fill="black" stroke="black" points="308.4,-151.68 317,-145.5 306.42,-144.97 308.4,-151.68"/>
</g>
<!-- c22 -->
<g id="node10" class="node">
<title>c22</title>
<polygon fill="none" stroke="black" points="319,-214.5 319,-252.5 420,-252.5 420,-214.5 319,-214.5"/>
<text text-anchor="middle" x="332" y="-229.8" font-family="Times,serif" font-size="14.00">A</text>
<polyline fill="none" stroke="black" points="345,-214.5 345,-252.5 "/>
<text text-anchor="middle" x="369.5" y="-237.3" font-family="Times,serif" font-size="14.00">$1</text>
<text text-anchor="middle" x="369.5" y="-222.3" font-family="Times,serif" font-size="14.00">$not</text>
<polyline fill="none" stroke="black" points="394,-214.5 394,-252.5 "/>
<text text-anchor="middle" x="407" y="-229.8" font-family="Times,serif" font-size="14.00">Y</text>
</g>
<!-- n10&#45;&gt;c22 -->
<g id="edge3" class="edge">
<title>n10:e&#45;&gt;c22:w</title>
<path fill="none" stroke="black" d="M281,-214.5C295.29,-214.5 298.37,-226.1 307.75,-231.17"/>
<polygon fill="black" stroke="black" points="306.96,-234.58 317.5,-233.5 308.59,-227.77 306.96,-234.58"/>
</g>
<!-- n11 -->
<g id="node2" class="node">
<title>n11</title>
<polygon fill="none" stroke="black" points="54,-132.04 54,-146.96 38.18,-157.5 15.82,-157.5 0,-146.96 0,-132.04 15.82,-121.5 38.18,-121.5 54,-132.04"/>
<text text-anchor="middle" x="27" y="-135.8" font-family="Times,serif" font-size="14.00">b</text>
</g>
<!-- c24 -->
<g id="node12" class="node">
<title>c24</title>
<polygon fill="none" stroke="black" points="90,-120.5 90,-158.5 191,-158.5 191,-120.5 90,-120.5"/>
<text text-anchor="middle" x="103" y="-135.8" font-family="Times,serif" font-size="14.00">A</text>
<polyline fill="none" stroke="black" points="116,-120.5 116,-158.5 "/>
<text text-anchor="middle" x="140.5" y="-143.3" font-family="Times,serif" font-size="14.00">$11</text>
<text text-anchor="middle" x="140.5" y="-128.3" font-family="Times,serif" font-size="14.00">$not</text>
<polyline fill="none" stroke="black" points="165,-120.5 165,-158.5 "/>
<text text-anchor="middle" x="178" y="-135.8" font-family="Times,serif" font-size="14.00">Y</text>
</g>
<!-- n11&#45;&gt;c24 -->
<g id="edge4" class="edge">
<title>n11:e&#45;&gt;c24:w</title>
<path fill="none" stroke="black" d="M54,-139.5C66,-139.5 71.25,-139.5 79.88,-139.5"/>
<polygon fill="black" stroke="black" points="80,-143 90,-139.5 80,-136 80,-143"/>
</g>
<!-- n12 -->
<g id="node3" class="node">
<title>n12</title>
<polygon fill="none" stroke="black" points="281,-41.04 281,-55.96 265.18,-66.5 242.82,-66.5 227,-55.96 227,-41.04 242.82,-30.5 265.18,-30.5 281,-41.04"/>
<text text-anchor="middle" x="254" y="-44.8" font-family="Times,serif" font-size="14.00">c</text>
</g>
<!-- c21 -->
<g id="node9" class="node">
<title>c21</title>
<polygon fill="none" stroke="black" points="599,-23.5 599,-69.5 704,-69.5 704,-23.5 599,-23.5"/>
<text text-anchor="middle" x="612.5" y="-54.3" font-family="Times,serif" font-size="14.00">A</text>
<polyline fill="none" stroke="black" points="599,-46.5 626,-46.5 "/>
<text text-anchor="middle" x="612.5" y="-31.3" font-family="Times,serif" font-size="14.00">B</text>
<polyline fill="none" stroke="black" points="626,-23.5 626,-69.5 "/>
<text text-anchor="middle" x="652" y="-50.3" font-family="Times,serif" font-size="14.00">$13</text>
<text text-anchor="middle" x="652" y="-35.3" font-family="Times,serif" font-size="14.00">$and</text>
<polyline fill="none" stroke="black" points="678,-23.5 678,-69.5 "/>
<text text-anchor="middle" x="691" y="-42.8" font-family="Times,serif" font-size="14.00">Y</text>
</g>
<!-- n12&#45;&gt;c21 -->
<g id="edge5" class="edge">
<title>n12:e&#45;&gt;c21:w</title>
<path fill="none" stroke="black" d="M281,-48.5C297.15,-48.5 300.9,-44.87 317,-43.5 438.53,-33.15 471.8,-34.42 588.92,-34.5"/>
<polygon fill="black" stroke="black" points="589,-38 599,-34.5 589,-31 589,-38"/>
</g>
<!-- c23 -->
<g id="node11" class="node">
<title>c23</title>
<polygon fill="none" stroke="black" points="319,-53.5 319,-91.5 420,-91.5 420,-53.5 319,-53.5"/>
<text text-anchor="middle" x="332" y="-68.8" font-family="Times,serif" font-size="14.00">A</text>
<polyline fill="none" stroke="black" points="345,-53.5 345,-91.5 "/>
<text text-anchor="middle" x="369.5" y="-76.3" font-family="Times,serif" font-size="14.00">$8</text>
<text text-anchor="middle" x="369.5" y="-61.3" font-family="Times,serif" font-size="14.00">$not</text>
<polyline fill="none" stroke="black" points="394,-53.5 394,-91.5 "/>
<text text-anchor="middle" x="407" y="-68.8" font-family="Times,serif" font-size="14.00">Y</text>
</g>
<!-- n12&#45;&gt;c23 -->
<g id="edge6" class="edge">
<title>n12:e&#45;&gt;c23:w</title>
<path fill="none" stroke="black" d="M281,-48.5C296.32,-48.5 298.1,-63.44 307.71,-69.75"/>
<polygon fill="black" stroke="black" points="306.93,-73.16 317.5,-72.5 308.82,-66.42 306.93,-73.16"/>
</g>
<!-- n13 -->
<g id="node4" class="node">
<title>n13</title>
<polygon fill="none" stroke="black" points="1060,-78.04 1060,-92.96 1044.18,-103.5 1021.82,-103.5 1006,-92.96 1006,-78.04 1021.82,-67.5 1044.18,-67.5 1060,-78.04"/>
<text text-anchor="middle" x="1033" y="-81.8" font-family="Times,serif" font-size="14.00">y</text>
</g>
<!-- c17 -->
<g id="node5" class="node">
<title>c17</title>
<polygon fill="none" stroke="black" points="458,-174.5 458,-220.5 563,-220.5 563,-174.5 458,-174.5"/>
<text text-anchor="middle" x="471.5" y="-205.3" font-family="Times,serif" font-size="14.00">A</text>
<polyline fill="none" stroke="black" points="458,-197.5 485,-197.5 "/>
<text text-anchor="middle" x="471.5" y="-182.3" font-family="Times,serif" font-size="14.00">B</text>
<polyline fill="none" stroke="black" points="485,-174.5 485,-220.5 "/>
<text text-anchor="middle" x="511" y="-201.3" font-family="Times,serif" font-size="14.00">$3</text>
<text text-anchor="middle" x="511" y="-186.3" font-family="Times,serif" font-size="14.00">$and</text>
<polyline fill="none" stroke="black" points="537,-174.5 537,-220.5 "/>
<text text-anchor="middle" x="550" y="-193.8" font-family="Times,serif" font-size="14.00">Y</text>
</g>
<!-- c18 -->
<g id="node6" class="node">
<title>c18</title>
<polygon fill="none" stroke="black" points="599,-153.5 599,-199.5 704,-199.5 704,-153.5 599,-153.5"/>
<text text-anchor="middle" x="612.5" y="-184.3" font-family="Times,serif" font-size="14.00">A</text>
<polyline fill="none" stroke="black" points="599,-176.5 626,-176.5 "/>
<text text-anchor="middle" x="612.5" y="-161.3" font-family="Times,serif" font-size="14.00">B</text>
<polyline fill="none" stroke="black" points="626,-153.5 626,-199.5 "/>
<text text-anchor="middle" x="652" y="-180.3" font-family="Times,serif" font-size="14.00">$5</text>
<text text-anchor="middle" x="652" y="-165.3" font-family="Times,serif" font-size="14.00">$and</text>
<polyline fill="none" stroke="black" points="678,-153.5 678,-199.5 "/>
<text text-anchor="middle" x="691" y="-172.8" font-family="Times,serif" font-size="14.00">Y</text>
</g>
<!-- c17&#45;&gt;c18 -->
<g id="edge1" class="edge">
<title>c17:e&#45;&gt;c18:w</title>
<path fill="none" stroke="black" d="M563,-197.5C575.5,-197.5 580.26,-192.33 589.01,-189.83"/>
<polygon fill="black" stroke="black" points="589.55,-193.29 599,-188.5 588.63,-186.35 589.55,-193.29"/>
</g>
<!-- c25 -->
<g id="node13" class="node">
<title>c25</title>
<polygon fill="none" stroke="black" points="740,-100.5 740,-146.5 837,-146.5 837,-100.5 740,-100.5"/>
<text text-anchor="middle" x="753.5" y="-131.3" font-family="Times,serif" font-size="14.00">A</text>
<polyline fill="none" stroke="black" points="740,-123.5 767,-123.5 "/>
<text text-anchor="middle" x="753.5" y="-108.3" font-family="Times,serif" font-size="14.00">B</text>
<polyline fill="none" stroke="black" points="767,-100.5 767,-146.5 "/>
<text text-anchor="middle" x="789" y="-127.3" font-family="Times,serif" font-size="14.00">$10</text>
<text text-anchor="middle" x="789" y="-112.3" font-family="Times,serif" font-size="14.00">$or</text>
<polyline fill="none" stroke="black" points="811,-100.5 811,-146.5 "/>
<text text-anchor="middle" x="824" y="-119.8" font-family="Times,serif" font-size="14.00">Y</text>
</g>
<!-- c18&#45;&gt;c25 -->
<g id="edge8" class="edge">
<title>c18:e&#45;&gt;c25:w</title>
<path fill="none" stroke="black" d="M704,-176.5C724.08,-176.5 718.96,-148.38 730.38,-138.72"/>
<polygon fill="black" stroke="black" points="731.63,-141.99 740,-135.5 729.41,-135.35 731.63,-141.99"/>
</g>
<!-- n3 -->
<g id="node15" class="node">
<title>n3</title>
<ellipse fill="black" stroke="black" cx="510.5" cy="-100.5" rx="1.8" ry="1.8"/>
</g>
<!-- c19&#45;&gt;n3 -->
<g id="edge9" class="edge">
<title>c19:e&#45;&gt;n3:w</title>
<path fill="none" stroke="black" d="M422,-133.5C440.75,-133.5 440.61,-118.52 458,-111.5 475.31,-104.51 482.44,-101.56 497.18,-100.74"/>
<polygon fill="black" stroke="black" points="497.59,-104.24 507.5,-100.5 497.42,-97.24 497.59,-104.24"/>
</g>
<!-- c20 -->
<g id="node8" class="node">
<title>c20</title>
<polygon fill="none" stroke="black" points="599,-88.5 599,-134.5 704,-134.5 704,-88.5 599,-88.5"/>
<text text-anchor="middle" x="612.5" y="-119.3" font-family="Times,serif" font-size="14.00">A</text>
<polyline fill="none" stroke="black" points="599,-111.5 626,-111.5 "/>
<text text-anchor="middle" x="612.5" y="-96.3" font-family="Times,serif" font-size="14.00">B</text>
<polyline fill="none" stroke="black" points="626,-88.5 626,-134.5 "/>
<text text-anchor="middle" x="652" y="-115.3" font-family="Times,serif" font-size="14.00">$9</text>
<text text-anchor="middle" x="652" y="-100.3" font-family="Times,serif" font-size="14.00">$and</text>
<polyline fill="none" stroke="black" points="678,-88.5 678,-134.5 "/>
<text text-anchor="middle" x="691" y="-107.8" font-family="Times,serif" font-size="14.00">Y</text>
</g>
<!-- c20&#45;&gt;c25 -->
<g id="edge12" class="edge">
<title>c20:e&#45;&gt;c25:w</title>
<path fill="none" stroke="black" d="M704,-111.5C716,-111.5 721.25,-111.5 729.88,-111.5"/>
<polygon fill="black" stroke="black" points="730,-115 740,-111.5 730,-108 730,-115"/>
</g>
<!-- c26 -->
<g id="node14" class="node">
<title>c26</title>
<polygon fill="none" stroke="black" points="873,-62.5 873,-108.5 970,-108.5 970,-62.5 873,-62.5"/>
<text text-anchor="middle" x="886.5" y="-93.3" font-family="Times,serif" font-size="14.00">A</text>
<polyline fill="none" stroke="black" points="873,-85.5 900,-85.5 "/>
<text text-anchor="middle" x="886.5" y="-70.3" font-family="Times,serif" font-size="14.00">B</text>
<polyline fill="none" stroke="black" points="900,-62.5 900,-108.5 "/>
<text text-anchor="middle" x="922" y="-89.3" font-family="Times,serif" font-size="14.00">$14</text>
<text text-anchor="middle" x="922" y="-74.3" font-family="Times,serif" font-size="14.00">$or</text>
<polyline fill="none" stroke="black" points="944,-62.5 944,-108.5 "/>
<text text-anchor="middle" x="957" y="-81.8" font-family="Times,serif" font-size="14.00">Y</text>
</g>
<!-- c21&#45;&gt;c26 -->
<g id="edge13" class="edge">
<title>c21:e&#45;&gt;c26:w</title>
<path fill="none" stroke="black" d="M704,-46.5C776.5,-46.5 795.22,-71.03 862.68,-73.33"/>
<polygon fill="black" stroke="black" points="862.94,-76.83 873,-73.5 863.06,-69.83 862.94,-76.83"/>
</g>
<!-- c22&#45;&gt;c17 -->
<g id="edge14" class="edge">
<title>c22:e&#45;&gt;c17:w</title>
<path fill="none" stroke="black" d="M421.5,-233.5C436.82,-233.5 438.6,-218.56 448.21,-212.25"/>
<polygon fill="black" stroke="black" points="449.32,-215.58 458,-209.5 447.43,-208.84 449.32,-215.58"/>
</g>
<!-- n8 -->
<g id="node17" class="node">
<title>n8</title>
<ellipse fill="black" stroke="black" cx="510.5" cy="-122.5" rx="1.8" ry="1.8"/>
</g>
<!-- c23&#45;&gt;n8 -->
<g id="edge18" class="edge">
<title>c23:e&#45;&gt;n8:w</title>
<path fill="none" stroke="black" d="M421.5,-72.5C445.24,-72.5 437.38,-99.73 458,-111.5 474.21,-120.75 482.06,-122.22 497.08,-122.46"/>
<polygon fill="black" stroke="black" points="497.49,-125.96 507.5,-122.5 497.51,-118.96 497.49,-125.96"/>
</g>
<!-- n7 -->
<g id="node16" class="node">
<title>n7</title>
<ellipse fill="black" stroke="black" cx="254" cy="-139.5" rx="1.8" ry="1.8"/>
</g>
<!-- c24&#45;&gt;n7 -->
<g id="edge15" class="edge">
<title>c24:e&#45;&gt;n7:w</title>
<path fill="none" stroke="black" d="M191,-139.5C213.92,-139.5 222.06,-139.5 240.83,-139.5"/>
<polygon fill="black" stroke="black" points="241,-143 251,-139.5 241,-136 241,-143"/>
</g>
<!-- c25&#45;&gt;c26 -->
<g id="edge21" class="edge">
<title>c25:e&#45;&gt;c26:w</title>
<path fill="none" stroke="black" d="M837,-123.5C852.57,-123.5 853.7,-107.31 863.17,-100.48"/>
<polygon fill="black" stroke="black" points="864.45,-103.75 873,-97.5 862.41,-97.06 864.45,-103.75"/>
</g>
<!-- c26&#45;&gt;n13 -->
<g id="edge7" class="edge">
<title>c26:e&#45;&gt;n13:w</title>
<path fill="none" stroke="black" d="M970,-85.5C982,-85.5 987.25,-85.5 995.88,-85.5"/>
<polygon fill="black" stroke="black" points="996,-89 1006,-85.5 996,-82 996,-89"/>
</g>
<!-- n3&#45;&gt;c20 -->
<g id="edge10" class="edge">
<title>n3:e&#45;&gt;c20:w</title>
<path fill="none" stroke="black" d="M513.5,-100.5C536.04,-100.5 541.28,-105.48 563,-111.5 575.32,-114.91 579.95,-120.04 588.82,-122.33"/>
<polygon fill="black" stroke="black" points="588.67,-125.84 599,-123.5 589.47,-118.88 588.67,-125.84"/>
</g>
<!-- n3&#45;&gt;c21 -->
<g id="edge11" class="edge">
<title>n3:e&#45;&gt;c21:w</title>
<path fill="none" stroke="black" d="M513.5,-100.5C552.2,-100.5 556.21,-65.41 588.95,-59.38"/>
<polygon fill="black" stroke="black" points="589.34,-62.86 599,-58.5 588.73,-55.88 589.34,-62.86"/>
</g>
<!-- n7&#45;&gt;c17 -->
<g id="edge16" class="edge">
<title>n7:e&#45;&gt;c17:w</title>
<path fill="none" stroke="black" d="M257,-139.5C286.06,-139.5 289.03,-157.61 317,-165.5 374.47,-181.71 392.66,-185.13 447.68,-185.47"/>
<polygon fill="black" stroke="black" points="447.99,-188.97 458,-185.5 448.01,-181.97 447.99,-188.97"/>
</g>
<!-- n7&#45;&gt;c19 -->
<g id="edge17" class="edge">
<title>n7:e&#45;&gt;c19:w</title>
<path fill="none" stroke="black" d="M257,-139.5C281.03,-139.5 287.54,-126.09 306.78,-122.42"/>
<polygon fill="black" stroke="black" points="307.35,-125.88 317,-121.5 306.73,-118.91 307.35,-125.88"/>
</g>
<!-- n8&#45;&gt;c18 -->
<g id="edge19" class="edge">
<title>n8:e&#45;&gt;c18:w</title>
<path fill="none" stroke="black" d="M513.5,-122.5C552.2,-122.5 556.21,-157.59 588.95,-163.62"/>
<polygon fill="black" stroke="black" points="588.73,-167.12 599,-164.5 589.34,-160.14 588.73,-167.12"/>
</g>
<!-- n8&#45;&gt;c20 -->
<g id="edge20" class="edge">
<title>n8:e&#45;&gt;c20:w</title>
<path fill="none" stroke="black" d="M513.5,-122.5C536.04,-122.5 541.28,-117.52 563,-111.5 575.32,-108.09 579.95,-102.96 588.82,-100.67"/>
<polygon fill="black" stroke="black" points="589.47,-104.12 599,-99.5 588.67,-97.16 589.47,-104.12"/>
</g>
</g>
</svg>
