<?xml version="1.0" encoding="UTF-8" standalone="no"?>
<!DOCTYPE svg PUBLIC "-//W3C//DTD SVG 1.1//EN"
 "http://www.w3.org/Graphics/SVG/1.1/DTD/svg11.dtd">
<!-- Generated by graphviz version 2.42.3 (0)
 -->
<!-- Title: sillyfunction Pages: 1 -->
<svg width="927pt" height="398pt"
 viewBox="0.00 0.00 927.00 398.00" xmlns="http://www.w3.org/2000/svg" xmlns:xlink="http://www.w3.org/1999/xlink">
<g id="graph0" class="graph" transform="scale(1 1) rotate(0) translate(4 394)">
<title>sillyfunction</title>
<polygon fill="white" stroke="transparent" points="-4,4 -4,-394 923,-394 923,4 -4,4"/>
<text text-anchor="middle" x="459.5" y="-7.8" font-family="Times,serif" font-size="14.00">sillyfunction</text>
<!-- n15 -->
<g id="node1" class="node">
<title>n15</title>
<polygon fill="none" stroke="black" points="919,-136.04 919,-150.96 903.18,-161.5 880.82,-161.5 865,-150.96 865,-136.04 880.82,-125.5 903.18,-125.5 919,-136.04"/>
<text text-anchor="middle" x="892" y="-139.8" font-family="Times,serif" font-size="14.00">y</text>
</g>
<!-- n16 -->
<g id="node2" class="node">
<title>n16</title>
<polygon fill="none" stroke="black" points="167.5,-142.04 167.5,-156.96 151.68,-167.5 129.32,-167.5 113.5,-156.96 113.5,-142.04 129.32,-131.5 151.68,-131.5 167.5,-142.04"/>
<text text-anchor="middle" x="140.5" y="-145.8" font-family="Times,serif" font-size="14.00">c</text>
</g>
<!-- c23 -->
<g id="node6" class="node">
<title>c23</title>
<polygon fill="none" stroke="black" points="368,-81.5 368,-127.5 473,-127.5 473,-81.5 368,-81.5"/>
<text text-anchor="middle" x="381.5" y="-112.3" font-family="Times,serif" font-size="14.00">A</text>
<polyline fill="none" stroke="black" points="368,-104.5 395,-104.5 "/>
<text text-anchor="middle" x="381.5" y="-89.3" font-family="Times,serif" font-size="14.00">B</text>
<polyline fill="none" stroke="black" points="395,-81.5 395,-127.5 "/>
<text text-anchor="middle" x="421" y="-108.3" font-family="Times,serif" font-size="14.00">$13</text>
<text text-anchor="middle" x="421" y="-93.3" font-family="Times,serif" font-size="14.00">$and</text>
<polyline fill="none" stroke="black" points="447,-81.5 447,-127.5 "/>
<text text-anchor="middle" x="460" y="-100.8" font-family="Times,serif" font-size="14.00">Y</text>
</g>
<!-- n16&#45;&gt;c23 -->
<g id="edge8" class="edge">
<title>n16:e&#45;&gt;c23:w</title>
<path fill="none" stroke="black" d="M168.5,-149.5C197.52,-149.5 199.53,-129.85 227,-120.5 284.17,-101.04 302.16,-93.35 357.93,-92.57"/>
<polygon fill="black" stroke="black" points="358.02,-96.07 368,-92.5 357.98,-89.07 358.02,-96.07"/>
</g>
<!-- c28 -->
<g id="node11" class="node">
<title>c28</title>
<polygon fill="none" stroke="black" points="229,-130.5 229,-168.5 330,-168.5 330,-130.5 229,-130.5"/>
<text text-anchor="middle" x="242" y="-145.8" font-family="Times,serif" font-size="14.00">A</text>
<polyline fill="none" stroke="black" points="255,-130.5 255,-168.5 "/>
<text text-anchor="middle" x="279.5" y="-153.3" font-family="Times,serif" font-size="14.00">$8</text>
<text text-anchor="middle" x="279.5" y="-138.3" font-family="Times,serif" font-size="14.00">$not</text>
<polyline fill="none" stroke="black" points="304,-130.5 304,-168.5 "/>
<text text-anchor="middle" x="317" y="-145.8" font-family="Times,serif" font-size="14.00">Y</text>
</g>
<!-- n16&#45;&gt;c28 -->
<g id="edge9" class="edge">
<title>n16:e&#45;&gt;c28:w</title>
<path fill="none" stroke="black" d="M168.5,-149.5C191.03,-149.5 199.05,-149.5 217.49,-149.5"/>
<polygon fill="black" stroke="black" points="217.5,-153 227.5,-149.5 217.5,-146 217.5,-153"/>
</g>
<!-- c32 -->
<g id="node15" class="node">
<title>c32</title>
<polygon fill="none" stroke="black" points="229,-187.5 229,-225.5 330,-225.5 330,-187.5 229,-187.5"/>
<text text-anchor="middle" x="242" y="-202.8" font-family="Times,serif" font-size="14.00">A</text>
<polyline fill="none" stroke="black" points="255,-187.5 255,-225.5 "/>
<text text-anchor="middle" x="279.5" y="-210.3" font-family="Times,serif" font-size="14.00">$4</text>
<text text-anchor="middle" x="279.5" y="-195.3" font-family="Times,serif" font-size="14.00">$not</text>
<polyline fill="none" stroke="black" points="304,-187.5 304,-225.5 "/>
<text text-anchor="middle" x="317" y="-202.8" font-family="Times,serif" font-size="14.00">Y</text>
</g>
<!-- n16&#45;&gt;c32 -->
<g id="edge10" class="edge">
<title>n16:e&#45;&gt;c32:w</title>
<path fill="none" stroke="black" d="M168.5,-149.5C201.12,-149.5 193.42,-195.11 217.53,-204.73"/>
<polygon fill="black" stroke="black" points="217.04,-208.2 227.5,-206.5 218.26,-201.31 217.04,-208.2"/>
</g>
<!-- n17 -->
<g id="node3" class="node">
<title>n17</title>
<polygon fill="none" stroke="black" points="54,-205.04 54,-219.96 38.18,-230.5 15.82,-230.5 0,-219.96 0,-205.04 15.82,-194.5 38.18,-194.5 54,-205.04"/>
<text text-anchor="middle" x="27" y="-208.8" font-family="Times,serif" font-size="14.00">b</text>
</g>
<!-- c25 -->
<g id="node8" class="node">
<title>c25</title>
<polygon fill="none" stroke="black" points="90,-23.5 90,-61.5 191,-61.5 191,-23.5 90,-23.5"/>
<text text-anchor="middle" x="103" y="-38.8" font-family="Times,serif" font-size="14.00">A</text>
<polyline fill="none" stroke="black" points="116,-23.5 116,-61.5 "/>
<text text-anchor="middle" x="140.5" y="-46.3" font-family="Times,serif" font-size="14.00">$11</text>
<text text-anchor="middle" x="140.5" y="-31.3" font-family="Times,serif" font-size="14.00">$not</text>
<polyline fill="none" stroke="black" points="165,-23.5 165,-61.5 "/>
<text text-anchor="middle" x="178" y="-38.8" font-family="Times,serif" font-size="14.00">Y</text>
</g>
<!-- n17&#45;&gt;c25 -->
<g id="edge11" class="edge">
<title>n17:e&#45;&gt;c25:w</title>
<path fill="none" stroke="black" d="M54,-212.5C127.46,-212.5 23.87,-58.7 80.04,-43.68"/>
<polygon fill="black" stroke="black" points="80.48,-47.15 90,-42.5 79.66,-40.2 80.48,-47.15"/>
</g>
<!-- c30 -->
<g id="node13" class="node">
<title>c30</title>
<polygon fill="none" stroke="black" points="90,-195.5 90,-233.5 191,-233.5 191,-195.5 90,-195.5"/>
<text text-anchor="middle" x="103" y="-210.8" font-family="Times,serif" font-size="14.00">A</text>
<polyline fill="none" stroke="black" points="116,-195.5 116,-233.5 "/>
<text text-anchor="middle" x="140.5" y="-218.3" font-family="Times,serif" font-size="14.00">$6</text>
<text text-anchor="middle" x="140.5" y="-203.3" font-family="Times,serif" font-size="14.00">$not</text>
<polyline fill="none" stroke="black" points="165,-195.5 165,-233.5 "/>
<text text-anchor="middle" x="178" y="-210.8" font-family="Times,serif" font-size="14.00">Y</text>
</g>
<!-- n17&#45;&gt;c30 -->
<g id="edge12" class="edge">
<title>n17:e&#45;&gt;c30:w</title>
<path fill="none" stroke="black" d="M54,-212.5C66.02,-212.5 71.25,-213.62 79.87,-214.19"/>
<polygon fill="black" stroke="black" points="79.9,-217.69 90,-214.5 80.11,-210.69 79.9,-217.69"/>
</g>
<!-- c34 -->
<g id="node17" class="node">
<title>c34</title>
<polygon fill="none" stroke="black" points="90,-294.5 90,-332.5 191,-332.5 191,-294.5 90,-294.5"/>
<text text-anchor="middle" x="103" y="-309.8" font-family="Times,serif" font-size="14.00">A</text>
<polyline fill="none" stroke="black" points="116,-294.5 116,-332.5 "/>
<text text-anchor="middle" x="140.5" y="-317.3" font-family="Times,serif" font-size="14.00">$2</text>
<text text-anchor="middle" x="140.5" y="-302.3" font-family="Times,serif" font-size="14.00">$not</text>
<polyline fill="none" stroke="black" points="165,-294.5 165,-332.5 "/>
<text text-anchor="middle" x="178" y="-309.8" font-family="Times,serif" font-size="14.00">Y</text>
</g>
<!-- n17&#45;&gt;c34 -->
<g id="edge13" class="edge">
<title>n17:e&#45;&gt;c34:w</title>
<path fill="none" stroke="black" d="M54,-212.5C97.56,-212.5 51.75,-296.89 79.95,-311.39"/>
<polygon fill="black" stroke="black" points="79.49,-314.87 90,-313.5 80.93,-308.02 79.49,-314.87"/>
</g>
<!-- n18 -->
<g id="node4" class="node">
<title>n18</title>
<polygon fill="none" stroke="black" points="54,-259.04 54,-273.96 38.18,-284.5 15.82,-284.5 0,-273.96 0,-259.04 15.82,-248.5 38.18,-248.5 54,-259.04"/>
<text text-anchor="middle" x="27" y="-262.8" font-family="Times,serif" font-size="14.00">a</text>
</g>
<!-- c24 -->
<g id="node7" class="node">
<title>c24</title>
<polygon fill="none" stroke="black" points="227,-26.5 227,-72.5 332,-72.5 332,-26.5 227,-26.5"/>
<text text-anchor="middle" x="240.5" y="-57.3" font-family="Times,serif" font-size="14.00">A</text>
<polyline fill="none" stroke="black" points="227,-49.5 254,-49.5 "/>
<text text-anchor="middle" x="240.5" y="-34.3" font-family="Times,serif" font-size="14.00">B</text>
<polyline fill="none" stroke="black" points="254,-26.5 254,-72.5 "/>
<text text-anchor="middle" x="280" y="-53.3" font-family="Times,serif" font-size="14.00">$12</text>
<text text-anchor="middle" x="280" y="-38.3" font-family="Times,serif" font-size="14.00">$and</text>
<polyline fill="none" stroke="black" points="306,-26.5 306,-72.5 "/>
<text text-anchor="middle" x="319" y="-45.8" font-family="Times,serif" font-size="14.00">Y</text>
</g>
<!-- n18&#45;&gt;c24 -->
<g id="edge14" class="edge">
<title>n18:e&#45;&gt;c24:w</title>
<path fill="none" stroke="black" d="M54,-266.5C119.97,-266.5 47.58,-173.02 90,-122.5 99.38,-111.33 184.48,-73.01 216.77,-63.6"/>
<polygon fill="black" stroke="black" points="217.91,-66.94 227,-61.5 216.5,-60.08 217.91,-66.94"/>
</g>
<!-- c29 -->
<g id="node12" class="node">
<title>c29</title>
<polygon fill="none" stroke="black" points="227,-244.5 227,-290.5 332,-290.5 332,-244.5 227,-244.5"/>
<text text-anchor="middle" x="240.5" y="-275.3" font-family="Times,serif" font-size="14.00">A</text>
<polyline fill="none" stroke="black" points="227,-267.5 254,-267.5 "/>
<text text-anchor="middle" x="240.5" y="-252.3" font-family="Times,serif" font-size="14.00">B</text>
<polyline fill="none" stroke="black" points="254,-244.5 254,-290.5 "/>
<text text-anchor="middle" x="280" y="-271.3" font-family="Times,serif" font-size="14.00">$7</text>
<text text-anchor="middle" x="280" y="-256.3" font-family="Times,serif" font-size="14.00">$and</text>
<polyline fill="none" stroke="black" points="306,-244.5 306,-290.5 "/>
<text text-anchor="middle" x="319" y="-263.8" font-family="Times,serif" font-size="14.00">Y</text>
</g>
<!-- n18&#45;&gt;c29 -->
<g id="edge15" class="edge">
<title>n18:e&#45;&gt;c29:w</title>
<path fill="none" stroke="black" d="M54,-266.5C127.64,-266.5 148.09,-278.36 216.95,-279.42"/>
<polygon fill="black" stroke="black" points="216.97,-282.92 227,-279.5 217.03,-275.92 216.97,-282.92"/>
</g>
<!-- c35 -->
<g id="node18" class="node">
<title>c35</title>
<polygon fill="none" stroke="black" points="90,-351.5 90,-389.5 191,-389.5 191,-351.5 90,-351.5"/>
<text text-anchor="middle" x="103" y="-366.8" font-family="Times,serif" font-size="14.00">A</text>
<polyline fill="none" stroke="black" points="116,-351.5 116,-389.5 "/>
<text text-anchor="middle" x="140.5" y="-374.3" font-family="Times,serif" font-size="14.00">$1</text>
<text text-anchor="middle" x="140.5" y="-359.3" font-family="Times,serif" font-size="14.00">$not</text>
<polyline fill="none" stroke="black" points="165,-351.5 165,-389.5 "/>
<text text-anchor="middle" x="178" y="-366.8" font-family="Times,serif" font-size="14.00">Y</text>
</g>
<!-- n18&#45;&gt;c35 -->
<g id="edge16" class="edge">
<title>n18:e&#45;&gt;c35:w</title>
<path fill="none" stroke="black" d="M54,-266.5C98.9,-266.5 50.49,-354.14 80.08,-368.52"/>
<polygon fill="black" stroke="black" points="79.51,-371.97 90,-370.5 80.88,-365.11 79.51,-371.97"/>
</g>
<!-- c22 -->
<g id="node5" class="node">
<title>c22</title>
<polygon fill="none" stroke="black" points="642,-120.5 642,-166.5 739,-166.5 739,-120.5 642,-120.5"/>
<text text-anchor="middle" x="655.5" y="-151.3" font-family="Times,serif" font-size="14.00">A</text>
<polyline fill="none" stroke="black" points="642,-143.5 669,-143.5 "/>
<text text-anchor="middle" x="655.5" y="-128.3" font-family="Times,serif" font-size="14.00">B</text>
<polyline fill="none" stroke="black" points="669,-120.5 669,-166.5 "/>
<text text-anchor="middle" x="691" y="-147.3" font-family="Times,serif" font-size="14.00">$14</text>
<text text-anchor="middle" x="691" y="-132.3" font-family="Times,serif" font-size="14.00">$or</text>
<polyline fill="none" stroke="black" points="713,-120.5 713,-166.5 "/>
<text text-anchor="middle" x="726" y="-139.8" font-family="Times,serif" font-size="14.00">Y</text>
</g>
<!-- x0 -->
<g id="node19" class="node">
<title>x0</title>
<path fill="none" stroke="black" d="M817,-161.5C817,-161.5 787,-161.5 787,-161.5 781,-161.5 775,-155.5 775,-149.5 775,-149.5 775,-137.5 775,-137.5 775,-131.5 781,-125.5 787,-125.5 787,-125.5 817,-125.5 817,-125.5 823,-125.5 829,-131.5 829,-137.5 829,-137.5 829,-149.5 829,-149.5 829,-155.5 823,-161.5 817,-161.5"/>
<text text-anchor="middle" x="802" y="-139.8" font-family="Times,serif" font-size="14.00">BUF</text>
</g>
<!-- c22&#45;&gt;x0 -->
<g id="edge1" class="edge">
<title>c22:e&#45;&gt;x0:w</title>
<path fill="none" stroke="black" d="M739,-143.5C751,-143.5 756.25,-143.5 764.88,-143.5"/>
<polygon fill="black" stroke="black" points="765,-147 775,-143.5 765,-140 765,-147"/>
</g>
<!-- c23&#45;&gt;c22 -->
<g id="edge17" class="edge">
<title>c23:e&#45;&gt;c22:w</title>
<path fill="none" stroke="black" d="M473,-104.5C545.5,-104.5 564.22,-129.03 631.68,-131.33"/>
<polygon fill="black" stroke="black" points="631.94,-134.83 642,-131.5 632.06,-127.83 631.94,-134.83"/>
</g>
<!-- c24&#45;&gt;c23 -->
<g id="edge18" class="edge">
<title>c24:e&#45;&gt;c23:w</title>
<path fill="none" stroke="black" d="M332,-49.5C361.58,-49.5 341.08,-100.8 358.13,-113.62"/>
<polygon fill="black" stroke="black" points="357.42,-117.06 368,-116.5 359.38,-110.34 357.42,-117.06"/>
</g>
<!-- c25&#45;&gt;c24 -->
<g id="edge19" class="edge">
<title>c25:e&#45;&gt;c24:w</title>
<path fill="none" stroke="black" d="M191,-42.5C203.12,-42.5 208.22,-39.69 216.83,-38.28"/>
<polygon fill="black" stroke="black" points="217.3,-41.76 227,-37.5 216.76,-34.78 217.3,-41.76"/>
</g>
<!-- c26 -->
<g id="node9" class="node">
<title>c26</title>
<polygon fill="none" stroke="black" points="509,-158.5 509,-204.5 606,-204.5 606,-158.5 509,-158.5"/>
<text text-anchor="middle" x="522.5" y="-189.3" font-family="Times,serif" font-size="14.00">A</text>
<polyline fill="none" stroke="black" points="509,-181.5 536,-181.5 "/>
<text text-anchor="middle" x="522.5" y="-166.3" font-family="Times,serif" font-size="14.00">B</text>
<polyline fill="none" stroke="black" points="536,-158.5 536,-204.5 "/>
<text text-anchor="middle" x="558" y="-185.3" font-family="Times,serif" font-size="14.00">$10</text>
<text text-anchor="middle" x="558" y="-170.3" font-family="Times,serif" font-size="14.00">$or</text>
<polyline fill="none" stroke="black" points="580,-158.5 580,-204.5 "/>
<text text-anchor="middle" x="593" y="-177.8" font-family="Times,serif" font-size="14.00">Y</text>
</g>
<!-- c26&#45;&gt;c22 -->
<g id="edge20" class="edge">
<title>c26:e&#45;&gt;c22:w</title>
<path fill="none" stroke="black" d="M606,-181.5C621.57,-181.5 622.7,-165.31 632.17,-158.48"/>
<polygon fill="black" stroke="black" points="633.45,-161.75 642,-155.5 631.41,-155.06 633.45,-161.75"/>
</g>
<!-- c27 -->
<g id="node10" class="node">
<title>c27</title>
<polygon fill="none" stroke="black" points="368,-146.5 368,-192.5 473,-192.5 473,-146.5 368,-146.5"/>
<text text-anchor="middle" x="381.5" y="-177.3" font-family="Times,serif" font-size="14.00">A</text>
<polyline fill="none" stroke="black" points="368,-169.5 395,-169.5 "/>
<text text-anchor="middle" x="381.5" y="-154.3" font-family="Times,serif" font-size="14.00">B</text>
<polyline fill="none" stroke="black" points="395,-146.5 395,-192.5 "/>
<text text-anchor="middle" x="421" y="-173.3" font-family="Times,serif" font-size="14.00">$9</text>
<text text-anchor="middle" x="421" y="-158.3" font-family="Times,serif" font-size="14.00">$and</text>
<polyline fill="none" stroke="black" points="447,-146.5 447,-192.5 "/>
<text text-anchor="middle" x="460" y="-165.8" font-family="Times,serif" font-size="14.00">Y</text>
</g>
<!-- c27&#45;&gt;c26 -->
<g id="edge21" class="edge">
<title>c27:e&#45;&gt;c26:w</title>
<path fill="none" stroke="black" d="M473,-169.5C485,-169.5 490.25,-169.5 498.88,-169.5"/>
<polygon fill="black" stroke="black" points="499,-173 509,-169.5 499,-166 499,-173"/>
</g>
<!-- c28&#45;&gt;c27 -->
<g id="edge22" class="edge">
<title>c28:e&#45;&gt;c27:w</title>
<path fill="none" stroke="black" d="M331.5,-149.5C344.09,-149.5 349.02,-154.09 357.9,-156.32"/>
<polygon fill="black" stroke="black" points="357.66,-159.82 368,-157.5 358.47,-152.86 357.66,-159.82"/>
</g>
<!-- c29&#45;&gt;c27 -->
<g id="edge23" class="edge">
<title>c29:e&#45;&gt;c27:w</title>
<path fill="none" stroke="black" d="M332,-267.5C369.39,-267.5 334.88,-197.48 358.22,-183.8"/>
<polygon fill="black" stroke="black" points="359.07,-187.2 368,-181.5 357.46,-180.38 359.07,-187.2"/>
</g>
<!-- c30&#45;&gt;c29 -->
<g id="edge24" class="edge">
<title>c30:e&#45;&gt;c29:w</title>
<path fill="none" stroke="black" d="M191,-214.5C211.08,-214.5 205.96,-242.62 217.38,-252.28"/>
<polygon fill="black" stroke="black" points="216.41,-255.65 227,-255.5 218.63,-249.01 216.41,-255.65"/>
</g>
<!-- c31 -->
<g id="node14" class="node">
<title>c31</title>
<polygon fill="none" stroke="black" points="368,-211.5 368,-257.5 473,-257.5 473,-211.5 368,-211.5"/>
<text text-anchor="middle" x="381.5" y="-242.3" font-family="Times,serif" font-size="14.00">A</text>
<polyline fill="none" stroke="black" points="368,-234.5 395,-234.5 "/>
<text text-anchor="middle" x="381.5" y="-219.3" font-family="Times,serif" font-size="14.00">B</text>
<polyline fill="none" stroke="black" points="395,-211.5 395,-257.5 "/>
<text text-anchor="middle" x="421" y="-238.3" font-family="Times,serif" font-size="14.00">$5</text>
<text text-anchor="middle" x="421" y="-223.3" font-family="Times,serif" font-size="14.00">$and</text>
<polyline fill="none" stroke="black" points="447,-211.5 447,-257.5 "/>
<text text-anchor="middle" x="460" y="-230.8" font-family="Times,serif" font-size="14.00">Y</text>
</g>
<!-- c31&#45;&gt;c26 -->
<g id="edge2" class="edge">
<title>c31:e&#45;&gt;c26:w</title>
<path fill="none" stroke="black" d="M473,-234.5C493.08,-234.5 487.96,-206.38 499.38,-196.72"/>
<polygon fill="black" stroke="black" points="500.63,-199.99 509,-193.5 498.41,-193.35 500.63,-199.99"/>
</g>
<!-- c32&#45;&gt;c31 -->
<g id="edge3" class="edge">
<title>c32:e&#45;&gt;c31:w</title>
<path fill="none" stroke="black" d="M331.5,-206.5C345.2,-206.5 348.95,-216.07 358.14,-220.41"/>
<polygon fill="black" stroke="black" points="357.49,-223.85 368,-222.5 358.94,-217 357.49,-223.85"/>
</g>
<!-- c33 -->
<g id="node16" class="node">
<title>c33</title>
<polygon fill="none" stroke="black" points="227,-309.5 227,-355.5 332,-355.5 332,-309.5 227,-309.5"/>
<text text-anchor="middle" x="240.5" y="-340.3" font-family="Times,serif" font-size="14.00">A</text>
<polyline fill="none" stroke="black" points="227,-332.5 254,-332.5 "/>
<text text-anchor="middle" x="240.5" y="-317.3" font-family="Times,serif" font-size="14.00">B</text>
<polyline fill="none" stroke="black" points="254,-309.5 254,-355.5 "/>
<text text-anchor="middle" x="280" y="-336.3" font-family="Times,serif" font-size="14.00">$3</text>
<text text-anchor="middle" x="280" y="-321.3" font-family="Times,serif" font-size="14.00">$and</text>
<polyline fill="none" stroke="black" points="306,-309.5 306,-355.5 "/>
<text text-anchor="middle" x="319" y="-328.8" font-family="Times,serif" font-size="14.00">Y</text>
</g>
<!-- c33&#45;&gt;c31 -->
<g id="edge4" class="edge">
<title>c33:e&#45;&gt;c31:w</title>
<path fill="none" stroke="black" d="M332,-332.5C369.39,-332.5 334.88,-262.48 358.22,-248.8"/>
<polygon fill="black" stroke="black" points="359.07,-252.2 368,-246.5 357.46,-245.38 359.07,-252.2"/>
</g>
<!-- c34&#45;&gt;c33 -->
<g id="edge5" class="edge">
<title>c34:e&#45;&gt;c33:w</title>
<path fill="none" stroke="black" d="M191,-313.5C203.22,-313.5 208.19,-317.44 216.79,-319.41"/>
<polygon fill="black" stroke="black" points="216.68,-322.91 227,-320.5 217.43,-315.95 216.68,-322.91"/>
</g>
<!-- c35&#45;&gt;c33 -->
<g id="edge6" class="edge">
<title>c35:e&#45;&gt;c33:w</title>
<path fill="none" stroke="black" d="M191,-370.5C206.57,-370.5 207.7,-354.31 217.17,-347.48"/>
<polygon fill="black" stroke="black" points="218.45,-350.75 227,-344.5 216.41,-344.06 218.45,-350.75"/>
</g>
<!-- x0&#45;&gt;n15 -->
<g id="edge7" class="edge">
<title>x0:e&#45;&gt;n15:w</title>
<path fill="none" stroke="black" d="M829,-143.5C841,-143.5 846.25,-143.5 854.88,-143.5"/>
<polygon fill="black" stroke="black" points="855,-147 865,-143.5 855,-140 855,-147"/>
</g>
</g>
</svg>
