<?xml version="1.0" encoding="UTF-8" standalone="no"?>
<!DOCTYPE svg PUBLIC "-//W3C//DTD SVG 1.1//EN"
 "http://www.w3.org/Graphics/SVG/1.1/DTD/svg11.dtd">
<!-- Generated by graphviz version 2.42.3 (0)
 -->
<!-- Title: sillyfunction Pages: 1 -->
<svg width="1184pt" height="261pt"
 viewBox="0.00 0.00 1184.00 261.00" xmlns="http://www.w3.org/2000/svg" xmlns:xlink="http://www.w3.org/1999/xlink">
<g id="graph0" class="graph" transform="scale(1 1) rotate(0) translate(4 257)">
<title>sillyfunction</title>
<polygon fill="white" stroke="transparent" points="-4,4 -4,-257 1180,-257 1180,4 -4,4"/>
<text text-anchor="middle" x="588" y="-7.8" font-family="Times,serif" font-size="14.00">sillyfunction</text>
<!-- n10 -->
<g id="node1" class="node">
<title>n10</title>
<polygon fill="none" stroke="black" points="303,-207.04 303,-221.96 287.18,-232.5 264.82,-232.5 249,-221.96 249,-207.04 264.82,-196.5 287.18,-196.5 303,-207.04"/>
<text text-anchor="middle" x="276" y="-210.8" font-family="Times,serif" font-size="14.00">a</text>
</g>
<!-- c19 -->
<g id="node7" class="node">
<title>c19</title>
<polygon fill="none" stroke="black" points="339,-110.5 339,-156.5 464,-156.5 464,-110.5 339,-110.5"/>
<text text-anchor="middle" x="352.5" y="-141.3" font-family="Times,serif" font-size="14.00">A</text>
<polyline fill="none" stroke="black" points="339,-133.5 366,-133.5 "/>
<text text-anchor="middle" x="352.5" y="-118.3" font-family="Times,serif" font-size="14.00">B</text>
<polyline fill="none" stroke="black" points="366,-110.5 366,-156.5 "/>
<text text-anchor="middle" x="402" y="-137.3" font-family="Times,serif" font-size="14.00">$62</text>
<text text-anchor="middle" x="402" y="-122.3" font-family="Times,serif" font-size="14.00">$_AND_</text>
<polyline fill="none" stroke="black" points="438,-110.5 438,-156.5 "/>
<text text-anchor="middle" x="451" y="-129.8" font-family="Times,serif" font-size="14.00">Y</text>
</g>
<!-- n10&#45;&gt;c19 -->
<g id="edge2" class="edge">
<title>n10:e&#45;&gt;c19:w</title>
<path fill="none" stroke="black" d="M303,-214.5C333.27,-214.5 311.65,-161.67 328.94,-148.46"/>
<polygon fill="black" stroke="black" points="330.4,-151.68 339,-145.5 328.42,-144.97 330.4,-151.68"/>
</g>
<!-- c22 -->
<g id="node10" class="node">
<title>c22</title>
<polygon fill="none" stroke="black" points="340,-214.5 340,-252.5 463,-252.5 463,-214.5 340,-214.5"/>
<text text-anchor="middle" x="353" y="-229.8" font-family="Times,serif" font-size="14.00">A</text>
<polyline fill="none" stroke="black" points="366,-214.5 366,-252.5 "/>
<text text-anchor="middle" x="401.5" y="-237.3" font-family="Times,serif" font-size="14.00">$59</text>
<text text-anchor="middle" x="401.5" y="-222.3" font-family="Times,serif" font-size="14.00">$_NOT_</text>
<polyline fill="none" stroke="black" points="437,-214.5 437,-252.5 "/>
<text text-anchor="middle" x="450" y="-229.8" font-family="Times,serif" font-size="14.00">Y</text>
</g>
<!-- n10&#45;&gt;c22 -->
<g id="edge3" class="edge">
<title>n10:e&#45;&gt;c22:w</title>
<path fill="none" stroke="black" d="M303,-214.5C316.99,-214.5 320.05,-225.87 329.09,-231.02"/>
<polygon fill="black" stroke="black" points="328.45,-234.46 339,-233.5 330.15,-227.67 328.45,-234.46"/>
</g>
<!-- n11 -->
<g id="node2" class="node">
<title>n11</title>
<polygon fill="none" stroke="black" points="54,-132.04 54,-146.96 38.18,-157.5 15.82,-157.5 0,-146.96 0,-132.04 15.82,-121.5 38.18,-121.5 54,-132.04"/>
<text text-anchor="middle" x="27" y="-135.8" font-family="Times,serif" font-size="14.00">b</text>
</g>
<!-- c24 -->
<g id="node12" class="node">
<title>c24</title>
<polygon fill="none" stroke="black" points="90,-120.5 90,-158.5 213,-158.5 213,-120.5 90,-120.5"/>
<text text-anchor="middle" x="103" y="-135.8" font-family="Times,serif" font-size="14.00">A</text>
<polyline fill="none" stroke="black" points="116,-120.5 116,-158.5 "/>
<text text-anchor="middle" x="151.5" y="-143.3" font-family="Times,serif" font-size="14.00">$66</text>
<text text-anchor="middle" x="151.5" y="-128.3" font-family="Times,serif" font-size="14.00">$_NOT_</text>
<polyline fill="none" stroke="black" points="187,-120.5 187,-158.5 "/>
<text text-anchor="middle" x="200" y="-135.8" font-family="Times,serif" font-size="14.00">Y</text>
</g>
<!-- n11&#45;&gt;c24 -->
<g id="edge4" class="edge">
<title>n11:e&#45;&gt;c24:w</title>
<path fill="none" stroke="black" d="M54,-139.5C66,-139.5 71.25,-139.5 79.88,-139.5"/>
<polygon fill="black" stroke="black" points="80,-143 90,-139.5 80,-136 80,-143"/>
</g>
<!-- n12 -->
<g id="node3" class="node">
<title>n12</title>
<polygon fill="none" stroke="black" points="303,-41.04 303,-55.96 287.18,-66.5 264.82,-66.5 249,-55.96 249,-41.04 264.82,-30.5 287.18,-30.5 303,-41.04"/>
<text text-anchor="middle" x="276" y="-44.8" font-family="Times,serif" font-size="14.00">c</text>
</g>
<!-- c21 -->
<g id="node9" class="node">
<title>c21</title>
<polygon fill="none" stroke="black" points="661,-23.5 661,-69.5 786,-69.5 786,-23.5 661,-23.5"/>
<text text-anchor="middle" x="674.5" y="-54.3" font-family="Times,serif" font-size="14.00">A</text>
<polyline fill="none" stroke="black" points="661,-46.5 688,-46.5 "/>
<text text-anchor="middle" x="674.5" y="-31.3" font-family="Times,serif" font-size="14.00">B</text>
<polyline fill="none" stroke="black" points="688,-23.5 688,-69.5 "/>
<text text-anchor="middle" x="724" y="-50.3" font-family="Times,serif" font-size="14.00">$67</text>
<text text-anchor="middle" x="724" y="-35.3" font-family="Times,serif" font-size="14.00">$_AND_</text>
<polyline fill="none" stroke="black" points="760,-23.5 760,-69.5 "/>
<text text-anchor="middle" x="773" y="-42.8" font-family="Times,serif" font-size="14.00">Y</text>
</g>
<!-- n12&#45;&gt;c21 -->
<g id="edge5" class="edge">
<title>n12:e&#45;&gt;c21:w</title>
<path fill="none" stroke="black" d="M303,-48.5C319.15,-48.5 322.9,-44.84 339,-43.5 478.19,-31.92 516,-34.37 650.7,-34.5"/>
<polygon fill="black" stroke="black" points="651,-38 661,-34.5 651,-31 651,-38"/>
</g>
<!-- c23 -->
<g id="node11" class="node">
<title>c23</title>
<polygon fill="none" stroke="black" points="340,-53.5 340,-91.5 463,-91.5 463,-53.5 340,-53.5"/>
<text text-anchor="middle" x="353" y="-68.8" font-family="Times,serif" font-size="14.00">A</text>
<polyline fill="none" stroke="black" points="366,-53.5 366,-91.5 "/>
<text text-anchor="middle" x="401.5" y="-76.3" font-family="Times,serif" font-size="14.00">$63</text>
<text text-anchor="middle" x="401.5" y="-61.3" font-family="Times,serif" font-size="14.00">$_NOT_</text>
<polyline fill="none" stroke="black" points="437,-53.5 437,-91.5 "/>
<text text-anchor="middle" x="450" y="-68.8" font-family="Times,serif" font-size="14.00">Y</text>
</g>
<!-- n12&#45;&gt;c23 -->
<g id="edge6" class="edge">
<title>n12:e&#45;&gt;c23:w</title>
<path fill="none" stroke="black" d="M303,-48.5C318.17,-48.5 319.84,-63.44 329.32,-69.75"/>
<polygon fill="black" stroke="black" points="328.42,-73.13 339,-72.5 330.34,-66.4 328.42,-73.13"/>
</g>
<!-- n13 -->
<g id="node4" class="node">
<title>n13</title>
<polygon fill="none" stroke="black" points="1176,-78.04 1176,-92.96 1160.18,-103.5 1137.82,-103.5 1122,-92.96 1122,-78.04 1137.82,-67.5 1160.18,-67.5 1176,-78.04"/>
<text text-anchor="middle" x="1149" y="-81.8" font-family="Times,serif" font-size="14.00">y</text>
</g>
<!-- c17 -->
<g id="node5" class="node">
<title>c17</title>
<polygon fill="none" stroke="black" points="500,-174.5 500,-220.5 625,-220.5 625,-174.5 500,-174.5"/>
<text text-anchor="middle" x="513.5" y="-205.3" font-family="Times,serif" font-size="14.00">A</text>
<polyline fill="none" stroke="black" points="500,-197.5 527,-197.5 "/>
<text text-anchor="middle" x="513.5" y="-182.3" font-family="Times,serif" font-size="14.00">B</text>
<polyline fill="none" stroke="black" points="527,-174.5 527,-220.5 "/>
<text text-anchor="middle" x="563" y="-201.3" font-family="Times,serif" font-size="14.00">$60</text>
<text text-anchor="middle" x="563" y="-186.3" font-family="Times,serif" font-size="14.00">$_AND_</text>
<polyline fill="none" stroke="black" points="599,-174.5 599,-220.5 "/>
<text text-anchor="middle" x="612" y="-193.8" font-family="Times,serif" font-size="14.00">Y</text>
</g>
<!-- c18 -->
<g id="node6" class="node">
<title>c18</title>
<polygon fill="none" stroke="black" points="661,-153.5 661,-199.5 786,-199.5 786,-153.5 661,-153.5"/>
<text text-anchor="middle" x="674.5" y="-184.3" font-family="Times,serif" font-size="14.00">A</text>
<polyline fill="none" stroke="black" points="661,-176.5 688,-176.5 "/>
<text text-anchor="middle" x="674.5" y="-161.3" font-family="Times,serif" font-size="14.00">B</text>
<polyline fill="none" stroke="black" points="688,-153.5 688,-199.5 "/>
<text text-anchor="middle" x="724" y="-180.3" font-family="Times,serif" font-size="14.00">$61</text>
<text text-anchor="middle" x="724" y="-165.3" font-family="Times,serif" font-size="14.00">$_AND_</text>
<polyline fill="none" stroke="black" points="760,-153.5 760,-199.5 "/>
<text text-anchor="middle" x="773" y="-172.8" font-family="Times,serif" font-size="14.00">Y</text>
</g>
<!-- c17&#45;&gt;c18 -->
<g id="edge1" class="edge">
<title>c17:e&#45;&gt;c18:w</title>
<path fill="none" stroke="black" d="M625,-197.5C637.5,-197.5 642.26,-192.33 651.01,-189.83"/>
<polygon fill="black" stroke="black" points="651.55,-193.29 661,-188.5 650.63,-186.35 651.55,-193.29"/>
</g>
<!-- c25 -->
<g id="node13" class="node">
<title>c25</title>
<polygon fill="none" stroke="black" points="822,-100.5 822,-146.5 936,-146.5 936,-100.5 822,-100.5"/>
<text text-anchor="middle" x="835.5" y="-131.3" font-family="Times,serif" font-size="14.00">A</text>
<polyline fill="none" stroke="black" points="822,-123.5 849,-123.5 "/>
<text text-anchor="middle" x="835.5" y="-108.3" font-family="Times,serif" font-size="14.00">B</text>
<polyline fill="none" stroke="black" points="849,-100.5 849,-146.5 "/>
<text text-anchor="middle" x="879.5" y="-127.3" font-family="Times,serif" font-size="14.00">$65</text>
<text text-anchor="middle" x="879.5" y="-112.3" font-family="Times,serif" font-size="14.00">$_OR_</text>
<polyline fill="none" stroke="black" points="910,-100.5 910,-146.5 "/>
<text text-anchor="middle" x="923" y="-119.8" font-family="Times,serif" font-size="14.00">Y</text>
</g>
<!-- c18&#45;&gt;c25 -->
<g id="edge8" class="edge">
<title>c18:e&#45;&gt;c25:w</title>
<path fill="none" stroke="black" d="M786,-176.5C806.08,-176.5 800.96,-148.38 812.38,-138.72"/>
<polygon fill="black" stroke="black" points="813.63,-141.99 822,-135.5 811.41,-135.35 813.63,-141.99"/>
</g>
<!-- n3 -->
<g id="node15" class="node">
<title>n3</title>
<ellipse fill="black" stroke="black" cx="562.5" cy="-100.5" rx="1.8" ry="1.8"/>
</g>
<!-- c19&#45;&gt;n3 -->
<g id="edge9" class="edge">
<title>c19:e&#45;&gt;n3:w</title>
<path fill="none" stroke="black" d="M464,-133.5C482.75,-133.5 482.49,-118.21 500,-111.5 521.68,-103.2 530.23,-101.03 549.46,-100.6"/>
<polygon fill="black" stroke="black" points="549.53,-104.09 559.5,-100.5 549.47,-97.09 549.53,-104.09"/>
</g>
<!-- c20 -->
<g id="node8" class="node">
<title>c20</title>
<polygon fill="none" stroke="black" points="661,-88.5 661,-134.5 786,-134.5 786,-88.5 661,-88.5"/>
<text text-anchor="middle" x="674.5" y="-119.3" font-family="Times,serif" font-size="14.00">A</text>
<polyline fill="none" stroke="black" points="661,-111.5 688,-111.5 "/>
<text text-anchor="middle" x="674.5" y="-96.3" font-family="Times,serif" font-size="14.00">B</text>
<polyline fill="none" stroke="black" points="688,-88.5 688,-134.5 "/>
<text text-anchor="middle" x="724" y="-115.3" font-family="Times,serif" font-size="14.00">$64</text>
<text text-anchor="middle" x="724" y="-100.3" font-family="Times,serif" font-size="14.00">$_AND_</text>
<polyline fill="none" stroke="black" points="760,-88.5 760,-134.5 "/>
<text text-anchor="middle" x="773" y="-107.8" font-family="Times,serif" font-size="14.00">Y</text>
</g>
<!-- c20&#45;&gt;c25 -->
<g id="edge12" class="edge">
<title>c20:e&#45;&gt;c25:w</title>
<path fill="none" stroke="black" d="M786,-111.5C798,-111.5 803.25,-111.5 811.88,-111.5"/>
<polygon fill="black" stroke="black" points="812,-115 822,-111.5 812,-108 812,-115"/>
</g>
<!-- c26 -->
<g id="node14" class="node">
<title>c26</title>
<polygon fill="none" stroke="black" points="972,-62.5 972,-108.5 1086,-108.5 1086,-62.5 972,-62.5"/>
<text text-anchor="middle" x="985.5" y="-93.3" font-family="Times,serif" font-size="14.00">A</text>
<polyline fill="none" stroke="black" points="972,-85.5 999,-85.5 "/>
<text text-anchor="middle" x="985.5" y="-70.3" font-family="Times,serif" font-size="14.00">B</text>
<polyline fill="none" stroke="black" points="999,-62.5 999,-108.5 "/>
<text text-anchor="middle" x="1029.5" y="-89.3" font-family="Times,serif" font-size="14.00">$68</text>
<text text-anchor="middle" x="1029.5" y="-74.3" font-family="Times,serif" font-size="14.00">$_OR_</text>
<polyline fill="none" stroke="black" points="1060,-62.5 1060,-108.5 "/>
<text text-anchor="middle" x="1073" y="-81.8" font-family="Times,serif" font-size="14.00">Y</text>
</g>
<!-- c21&#45;&gt;c26 -->
<g id="edge13" class="edge">
<title>c21:e&#45;&gt;c26:w</title>
<path fill="none" stroke="black" d="M786,-46.5C865.94,-46.5 886.72,-71.23 961.58,-73.35"/>
<polygon fill="black" stroke="black" points="961.95,-76.86 972,-73.5 962.05,-69.86 961.95,-76.86"/>
</g>
<!-- c22&#45;&gt;c17 -->
<g id="edge14" class="edge">
<title>c22:e&#45;&gt;c17:w</title>
<path fill="none" stroke="black" d="M464,-233.5C479.17,-233.5 480.84,-218.56 490.32,-212.25"/>
<polygon fill="black" stroke="black" points="491.34,-215.6 500,-209.5 489.42,-208.87 491.34,-215.6"/>
</g>
<!-- n8 -->
<g id="node17" class="node">
<title>n8</title>
<ellipse fill="black" stroke="black" cx="562.5" cy="-122.5" rx="1.8" ry="1.8"/>
</g>
<!-- c23&#45;&gt;n8 -->
<g id="edge18" class="edge">
<title>c23:e&#45;&gt;n8:w</title>
<path fill="none" stroke="black" d="M464,-72.5C487.59,-72.5 479.35,-100.11 500,-111.5 520.33,-122.71 529.86,-122.76 549.39,-122.57"/>
<polygon fill="black" stroke="black" points="549.52,-126.07 559.5,-122.5 549.48,-119.07 549.52,-126.07"/>
</g>
<!-- n7 -->
<g id="node16" class="node">
<title>n7</title>
<ellipse fill="black" stroke="black" cx="276" cy="-139.5" rx="1.8" ry="1.8"/>
</g>
<!-- c24&#45;&gt;n7 -->
<g id="edge15" class="edge">
<title>c24:e&#45;&gt;n7:w</title>
<path fill="none" stroke="black" d="M213,-139.5C235.92,-139.5 244.06,-139.5 262.83,-139.5"/>
<polygon fill="black" stroke="black" points="263,-143 273,-139.5 263,-136 263,-143"/>
</g>
<!-- c25&#45;&gt;c26 -->
<g id="edge21" class="edge">
<title>c25:e&#45;&gt;c26:w</title>
<path fill="none" stroke="black" d="M936,-123.5C951.57,-123.5 952.7,-107.31 962.17,-100.48"/>
<polygon fill="black" stroke="black" points="963.45,-103.75 972,-97.5 961.41,-97.06 963.45,-103.75"/>
</g>
<!-- c26&#45;&gt;n13 -->
<g id="edge7" class="edge">
<title>c26:e&#45;&gt;n13:w</title>
<path fill="none" stroke="black" d="M1086,-85.5C1098,-85.5 1103.25,-85.5 1111.88,-85.5"/>
<polygon fill="black" stroke="black" points="1112,-89 1122,-85.5 1112,-82 1112,-89"/>
</g>
<!-- n3&#45;&gt;c20 -->
<g id="edge10" class="edge">
<title>n3:e&#45;&gt;c20:w</title>
<path fill="none" stroke="black" d="M565.5,-100.5C592.39,-100.5 598.96,-104.79 625,-111.5 637.38,-114.69 641.98,-119.94 650.83,-122.29"/>
<polygon fill="black" stroke="black" points="650.66,-125.79 661,-123.5 651.48,-118.84 650.66,-125.79"/>
</g>
<!-- n3&#45;&gt;c21 -->
<g id="edge11" class="edge">
<title>n3:e&#45;&gt;c21:w</title>
<path fill="none" stroke="black" d="M565.5,-100.5C608.25,-100.5 613.93,-64.81 650.89,-59.23"/>
<polygon fill="black" stroke="black" points="651.28,-62.71 661,-58.5 650.77,-55.73 651.28,-62.71"/>
</g>
<!-- n7&#45;&gt;c17 -->
<g id="edge16" class="edge">
<title>n7:e&#45;&gt;c17:w</title>
<path fill="none" stroke="black" d="M279,-139.5C308.06,-139.5 310.96,-157.85 339,-165.5 405.17,-183.55 425.89,-185.36 489.8,-185.49"/>
<polygon fill="black" stroke="black" points="490,-188.99 500,-185.5 490,-181.99 490,-188.99"/>
</g>
<!-- n7&#45;&gt;c19 -->
<g id="edge17" class="edge">
<title>n7:e&#45;&gt;c19:w</title>
<path fill="none" stroke="black" d="M279,-139.5C303.03,-139.5 309.54,-126.09 328.78,-122.42"/>
<polygon fill="black" stroke="black" points="329.35,-125.88 339,-121.5 328.73,-118.91 329.35,-125.88"/>
</g>
<!-- n8&#45;&gt;c18 -->
<g id="edge19" class="edge">
<title>n8:e&#45;&gt;c18:w</title>
<path fill="none" stroke="black" d="M565.5,-122.5C608.25,-122.5 613.93,-158.19 650.89,-163.77"/>
<polygon fill="black" stroke="black" points="650.77,-167.27 661,-164.5 651.28,-160.29 650.77,-167.27"/>
</g>
<!-- n8&#45;&gt;c20 -->
<g id="edge20" class="edge">
<title>n8:e&#45;&gt;c20:w</title>
<path fill="none" stroke="black" d="M565.5,-122.5C592.39,-122.5 598.96,-118.21 625,-111.5 637.38,-108.31 641.98,-103.06 650.83,-100.71"/>
<polygon fill="black" stroke="black" points="651.48,-104.16 661,-99.5 650.66,-97.21 651.48,-104.16"/>
</g>
</g>
</svg>
